<?xml version="1.0" encoding="iso-8859-1"?>
<!-- Generator: Adobe Illustrator 16.0.0, SVG Export Plug-In . SVG Version: 6.00 Build 0)  -->
<!DOCTYPE svg PUBLIC "-//W3C//DTD SVG 1.1//EN" "http://www.w3.org/Graphics/SVG/1.1/DTD/svg11.dtd">
<svg version="1.1" id="Capa_1" xmlns="http://www.w3.org/2000/svg" xmlns:xlink="http://www.w3.org/1999/xlink" x="0px" y="0px"
	 width="301.254px" height="301.254px" viewBox="0 0 301.254 301.254" style="enable-background:new 0 0 301.254 301.254;"
	 xml:space="preserve">
<g>
	<g>
		<path d="M226.302,301.254h-85.049c-2.312,0-4.6-0.606-6.605-1.766c-5.741-3.309-9.308-9.421-9.308-15.948
			c0-3.543,1.093-7.067,3.171-10.178c0.69-1.027,1.507-1.946,2.45-2.751c0.054-0.054,0.792-0.648,0.841-0.708
			c3.813-3.795,5.596-8.154,5.596-12.742c0-9.722-7.908-17.636-17.636-17.636c-9.722,0-17.627,7.914-17.627,17.636
			c0,4.563,1.768,8.911,4.999,12.25c0.336,0.324,0.669,0.576,1.005,0.841c0.033,0.023,0.685,0.558,0.715,0.6
			c1.291,1.045,2.354,2.342,3.155,3.795c1.573,2.853,2.372,5.844,2.372,8.894c0,6.497-3.549,12.586-9.253,15.913
			c-2.03,1.171-4.317,1.795-6.659,1.795H13.234c-7.305,0-13.229-5.927-13.229-13.223V74.942c0-7.299,5.93-13.22,13.229-13.22h66.137
			c-2.417-5.503-3.689-11.487-3.689-17.636C75.681,19.776,95.455,0,119.762,0c24.307,0,44.09,19.776,44.09,44.087
			c0,6.149-1.272,12.133-3.687,17.636h66.137c7.308,0,13.229,5.927,13.229,13.22v66.146c5.507-2.429,11.481-3.696,17.636-3.696
			c24.296,0,44.082,19.776,44.082,44.084s-19.786,44.087-44.082,44.087c-6.16,0-12.142-1.272-17.636-3.692v66.154
			C239.531,295.327,233.616,301.254,226.302,301.254z"/>
	</g>
</g>
<g>
</g>
<g>
</g>
<g>
</g>
<g>
</g>
<g>
</g>
<g>
</g>
<g>
</g>
<g>
</g>
<g>
</g>
<g>
</g>
<g>
</g>
<g>
</g>
<g>
</g>
<g>
</g>
<g>
</g>
</svg>
